<?xml version="1.0" encoding="UTF-8"?>
<svg version="1.1" xmlns="http://www.w3.org/2000/svg" width="390" height="360">
<path d="M0 0 C9.24 0 18.48 0 28 0 C28.33 22.77 28.66 45.54 29 69 C38.61466384 54.60861032 38.61466384 54.60861032 42.5 44.5 C45.53129928 39.73295675 45.53129928 39.73295675 49 38 C60.17848816 36.10020768 71.7543791 37.09638368 83 38 C81.71104283 40.81351786 80.33731495 42.9325707 78.20703125 45.171875 C77.39032959 46.0388501 77.39032959 46.0388501 76.55712891 46.92333984 C75.98140137 47.5261377 75.40567383 48.12893555 74.8125 48.75 C73.62808674 50.00704084 72.44448593 51.26484772 71.26171875 52.5234375 C70.69501465 53.12510742 70.12831055 53.72677734 69.54443359 54.34667969 C66.6089376 57.48913603 63.80436539 60.74106166 61 64 C59.68860343 65.50096479 58.37610897 67.00097107 57.0625 68.5 C56.47597656 69.1703125 55.88945312 69.840625 55.28515625 70.53125 C54.86105469 71.0159375 54.43695313 71.500625 54 72 C57.01475919 77.87008401 60.48336946 83.14483027 64.41796875 88.43359375 C68.65616015 94.21041398 72.61361578 100.18968002 76.63232422 106.11987305 C77.25252441 107.03422119 77.87272461 107.94856934 78.51171875 108.890625 C79.1051709 109.76654297 79.69862305 110.64246094 80.31005859 111.54492188 C81.82247638 113.7421009 83.37746169 115.89781589 84.95703125 118.046875 C87 121 87 121 87 123 C62.38805195 126.38677412 62.38805195 126.38677412 53 123 C45.87201321 117.47151453 42.45628991 109.1181725 39.18847656 100.92138672 C37.75000565 97.38549048 35.99030348 94.24957133 34 91 C31.57021292 92.62373332 30.46302871 93.51793413 29 96 C28.20936172 100.59668097 28.21032478 105.15651961 28.1875 109.8125 C28.125625 114.164375 28.06375 118.51625 28 123 C18.76 123 9.52 123 0 123 C0 82.41 0 41.82 0 0 Z " fill="#231D1F" transform="translate(126,130)"/>
<path d="M0 0 C-0.43384548 7.03128878 -1.74321997 13.329015 -4 20 C-6.78854442 19.47714792 -9.31703006 18.88771852 -12 17.9375 C-17.43475351 16.33478998 -23.40171126 16.46757534 -29 17 C-31.21896136 18.82471891 -31.21896136 18.82471891 -31.375 21.4375 C-31.26182332 24.06069663 -31.26182332 24.06069663 -29.42578125 25.484375 C-26.37747633 27.38895199 -23.16802307 28.57770767 -19.8125 29.8125 C-10.13193126 33.54533105 -1.50998405 37.9800319 3.3125 47.625 C4.93428999 55.58651451 5.01618808 63.76435751 1 71 C-2.69086685 76.53630028 -6.98825732 79.25677761 -13 82 C-13.69351563 82.32226562 -14.38703125 82.64453125 -15.1015625 82.9765625 C-29.21015771 88.31090768 -47.4418107 85.65949825 -61 80 C-60.39700836 72.76410027 -58.8849413 66.00629124 -57 59 C-53.29001622 59.63849358 -50.00966439 60.71745005 -46.5 62.0625 C-40.0241915 64.26925011 -33.79995216 64.84143293 -27 64 C-26.01 63.34 -25.02 62.68 -24 62 C-23.7497843 58.91634129 -23.7497843 58.91634129 -24 56 C-28.94203133 53.43434969 -33.82038863 51.01775607 -39.0625 49.125 C-46.92328631 46.06733981 -54.42910107 40.4783519 -58.07421875 32.7109375 C-60.212269 26.45014901 -59.88729703 19.31724965 -57.4375 13.1875 C-52.90868814 4.49155223 -46.08223341 0.24174113 -37 -3 C-24.77038028 -6.23664978 -11.71684214 -3.90561405 0 0 Z " fill="#231D1F" transform="translate(108,170)"/>
<path d="M0 0 C9.24 0 18.48 0 28 0 C28 40.59 28 81.18 28 123 C18.76 123 9.52 123 0 123 C0 82.41 0 41.82 0 0 Z " fill="#241E20" transform="translate(315,130)"/>
<path d="M0 0 C9.24 0 18.48 0 28 0 C28 40.59 28 81.18 28 123 C18.76 123 9.52 123 0 123 C0 82.41 0 41.82 0 0 Z " fill="#231E1F" transform="translate(268,130)"/>
<path d="M0 0 C8.91 0 17.82 0 27 0 C27 28.38 27 56.76 27 86 C17.76 86 8.52 86 -1 86 C-1.02255049 74.93464779 -1.04091478 63.86931072 -1.05181217 52.80394077 C-1.05704113 47.66640434 -1.06413901 42.52888437 -1.07543945 37.39135742 C-1.08626787 32.4376859 -1.09227674 27.48403026 -1.09487724 22.53034782 C-1.09673157 20.63602384 -1.10035234 18.74170076 -1.10573006 16.8473835 C-1.11293989 14.20365614 -1.11399097 11.55999529 -1.11352539 8.91625977 C-1.11712067 8.12504227 -1.12071594 7.33382477 -1.12442017 6.51863098 C-1.11405216 1.11405216 -1.11405216 1.11405216 0 0 Z " fill="#E71C25" transform="translate(222,84)"/>
<path d="M0 0 C3.83748898 3.64561454 5.31093617 6.6104043 5.875 11.875 C5.33746512 16.89199224 3.77834997 19.94169852 0.4375 23.6875 C-3.79758528 26.12042133 -7.64027088 26.69258108 -12.5 26.375 C-16.40150346 25.19929441 -19.38031758 23.35020727 -22.4375 20.6875 C-24.68544293 15.79491832 -25.12976115 11.13170217 -23.3125 6.0625 C-17.73176573 -2.21238185 -9.17032551 -4.25765113 0 0 Z " fill="#E51D26" transform="translate(244.5,180.625)"/>
<path d="M0 0 C1.6328125 1.05078125 1.6328125 1.05078125 3.9453125 3.17578125 C3.9453125 3.83578125 3.9453125 4.49578125 3.9453125 5.17578125 C2.9553125 4.84578125 1.9653125 4.51578125 0.9453125 4.17578125 C0.9453125 3.51578125 0.9453125 2.85578125 0.9453125 2.17578125 C-4.3856083 0.84305105 -9.75425241 0.07784632 -14.8046875 2.48828125 C-15.5471875 3.04515625 -16.2896875 3.60203125 -17.0546875 4.17578125 C-17.8178125 4.73265625 -18.5809375 5.28953125 -19.3671875 5.86328125 C-19.9240625 6.29640625 -20.4809375 6.72953125 -21.0546875 7.17578125 C-19.76457758 4.29784374 -18.48106944 2.21394208 -16.0546875 0.17578125 C-11.05795091 -1.48979761 -4.97398737 -1.9952687 0 0 Z " fill="#C2262F" transform="translate(243.0546875,179.82421875)"/>
</svg>
